<?xml version="1.0" encoding="UTF-8"?>
<svg width="17px" height="15px" viewBox="0 0 17 15" version="1.1" xmlns="http://www.w3.org/2000/svg" xmlns:xlink="http://www.w3.org/1999/xlink">
    <!-- Generator: Sketch 51.1 (57501) - http://www.bohemiancoding.com/sketch -->
    <title>Group 5 Copy</title>
    <desc>Created with Sketch.</desc>
    <defs></defs>
    <g id="Tracking" stroke="none" stroke-width="1" fill="none" fill-rule="evenodd" opacity="0.900000036">
        <g id="02tracking_split" transform="translate(-87.000000, -89.000000)" fill-rule="nonzero">
            <g id="Group-37" transform="translate(0.000000, 48.000000)">
                <g id="Group-11" transform="translate(0.000000, 24.000000)">
                    <g id="Group-5-Copy" transform="translate(81.000000, 10.000000)">
                        <rect id="Rectangle-6" x="0" y="0" width="29" height="29"></rect>
                        <path d="M16.3611111,7.3358209 C15.9166667,6.8880597 15.2222222,6.8880597 14.7777778,7.3358209 C14.3333333,7.78358209 14.3333333,8.48320896 14.7777778,8.93097015 L19.1944444,13.380597 L7.11111111,13.380597 C6.5,13.380597 6,13.8843284 6,14.5 C6,15.1156716 6.5,15.619403 7.11111111,15.619403 L19.2222222,15.619403 L14.7777778,20.0690299 C14.3333333,20.516791 14.3333333,21.2164179 14.7777778,21.6641791 C15,21.8880597 15.2777778,22 15.5555556,22 C15.8333333,22 16.1111111,21.8880597 16.3333333,21.6641791 L22.6666667,15.2835821 C23.1111111,14.8358209 23.1111111,14.136194 22.6666667,13.6884328 L16.3611111,7.3358209 Z" id="Shape" fill="#404040" transform="translate(14.500000, 14.500000) scale(-1, 1) translate(-14.500000, -14.500000) "></path>
                    </g>
                </g>
            </g>
        </g>
    </g>
</svg>